<?xml version="1.0" encoding="UTF-8"?>
<svg width="480px" height="359px" viewBox="0 0 480 359" version="1.1" xmlns="http://www.w3.org/2000/svg" xmlns:xlink="http://www.w3.org/1999/xlink">
    <!-- Generator: Sketch 52.5 (67469) - http://www.bohemiancoding.com/sketch -->
    <title>Group 100</title>
    <desc>Created with Sketch.</desc>
    <defs>
        <path d="M198.19499,5.6303429 C166.776655,21.5795101 201.552302,112.504745 162.613184,132.388635 C123.67373,152.27219 10.5264101,148.780518 10.5264101,216.753422 C10.5264101,284.726662 146.386564,262.651365 121.502477,276.445738 C96.6183905,290.240448 -28.1318964,307.355857 5.81206438,315.842015 C39.7563611,324.328174 122.32543,327.828915 133.371477,332.678964 C144.417523,337.528341 98.6179986,354.500658 171.019398,356.386396 C211.93965,357.452204 270.052568,358.396753 321.67457,358.404479 L322.705444,358.404479 C362.006998,358.400784 397.440672,357.848565 418.530441,356.386396 C458.362043,353.624969 511.237957,327.397957 456.532736,321.62049 C401.82718,315.842015 349.88809,251.763527 403.201344,219.685822 C456.515269,187.608789 516.274094,134.50816 396.823289,108.576739 C291.902477,85.7994122 263.90091,0.332540238 218.366074,0.323470959 C212.059902,0.322463261 205.424549,1.95997201 198.19499,5.6303429" id="path-1"></path>
        <linearGradient x1="50.0000076%" y1="-1.01325067e-05%" x2="50.0000076%" y2="100%" id="linearGradient-3">
            <stop stop-color="#FFFFFF" offset="0%"></stop>
            <stop stop-color="#EDEDED" offset="100%"></stop>
        </linearGradient>
    </defs>
    <g id="Page-1" stroke="none" stroke-width="1" fill="none" fill-rule="evenodd">
        <g id="5" transform="translate(-90.000000, -475.000000)">
            <g id="Group-100" transform="translate(90.000000, 475.000000)">
                <g id="Group-3" transform="translate(0.000000, 0.013436)">
                    <mask id="mask-2" fill="white">
                        <use xlink:href="#path-1"></use>
                    </mask>
                    <g id="Clip-2"></g>
                    <path d="M198.19499,5.6303429 C166.776655,21.5795101 201.552302,112.504745 162.613184,132.388635 C123.67373,152.27219 10.5264101,148.780518 10.5264101,216.753422 C10.5264101,284.726662 146.386564,262.651365 121.502477,276.445738 C96.6183905,290.240448 -28.1318964,307.355857 5.81206438,315.842015 C39.7563611,324.328174 122.32543,327.828915 133.371477,332.678964 C144.417523,337.528341 98.6179986,354.500658 171.019398,356.386396 C211.93965,357.452204 270.052568,358.396753 321.67457,358.404479 L322.705444,358.404479 C362.006998,358.400784 397.440672,357.848565 418.530441,356.386396 C458.362043,353.624969 511.237957,327.397957 456.532736,321.62049 C401.82718,315.842015 349.88809,251.763527 403.201344,219.685822 C456.515269,187.608789 516.274094,134.50816 396.823289,108.576739 C291.902477,85.7994122 263.90091,0.332540238 218.366074,0.323470959 C212.059902,0.322463261 205.424549,1.95997201 198.19499,5.6303429" id="Fill-1" fill="url(#linearGradient-3)" mask="url(#mask-2)"></path>
                </g>
                <g id="Group-99" transform="translate(49.041288, 38.977747)">
                    <polygon id="Fill-4" fill="#EAEAEA" points="0.0278796361 282.655843 151.349811 282.655843 151.349811 94.2274598 0.0278796361 94.2274598"></polygon>
                    <polygon id="Fill-6" fill="#EAEAEA" points="167.978502 169.580406 359.209629 169.580406 359.209629 22.1384465 167.978502 22.1384465"></polygon>
                    <polygon id="Fill-7" fill="#006B59" points="0.0278796361 94.2277957 151.349811 94.2277957 151.349811 74.4278796 0.0278796361 74.4278796"></polygon>
                    <path d="M139.641372,137.953948 L12.2042267,137.953948 C10.6903289,137.953948 9.46295311,136.726908 9.46295311,135.212675 L9.46295311,104.249484 C9.46295311,102.735586 10.6903289,101.50821 12.2042267,101.50821 L139.641372,101.50821 C141.155269,101.50821 142.382645,102.73525 142.382645,104.249484 L142.382645,135.21301 C142.382645,136.726908 141.155269,137.953948 139.641372,137.953948" id="Fill-8" fill="#FFFFFF"></path>
                    <path d="M91.1242883,183.250161 C91.1242883,202.146844 75.8056039,217.465864 56.908585,217.465864 C38.0115661,217.465864 22.6925458,202.146844 22.6925458,183.250161 C22.6925458,164.353142 38.0115661,149.034458 56.908585,149.034458 C75.8056039,149.034458 91.1242883,164.353142 91.1242883,183.250161" id="Fill-9" fill="#FFFFFF"></path>
                    <polygon id="Fill-10" fill="#01A38C" points="22.6926802 270.750567 36.4870539 270.750567 36.4870539 239.336935 22.6926802 239.336935"></polygon>
                    <polygon id="Fill-11" fill="#006B59" points="40.6797481 270.750567 54.4741218 270.750567 54.4741218 231.801372 40.6797481 231.801372"></polygon>
                    <polygon id="Fill-12" fill="#FFA71A" points="58.666816 270.750567 72.4611896 270.750567 72.4611896 237.481428 58.666816 237.481428"></polygon>
                    <polygon id="Fill-13" fill="#01A38C" points="77.330049 270.750567 91.1244227 270.750567 91.1244227 221.252792 77.330049 221.252792"></polygon>
                    <path d="M141.666609,270.7506 L102.289814,270.7506 C100.776252,270.7506 99.5485402,269.523225 99.5485402,268.009327 L99.5485402,151.775765 C99.5485402,150.261531 100.776252,149.034491 102.289814,149.034491 L141.666609,149.034491 C143.180507,149.034491 144.407547,150.261531 144.407547,151.775765 L144.407547,268.009327 C144.407547,269.523225 143.180507,270.7506 141.666609,270.7506" id="Fill-14" fill="#D4D4D4"></path>
                    <polygon id="Fill-15" fill="#01A38C" points="9.46295311 150.849657 29.590035 150.849657 29.590035 149.034458 9.46295311 149.034458"></polygon>
                    <polygon id="Fill-16" fill="#01A38C" points="9.46295311 155.569713 24.4259202 155.569713 24.4259202 153.754514 9.46295311 153.754514"></polygon>
                    <polygon id="Fill-17" fill="#FFA71A" points="220.291449 154.703093 232.198069 154.703093 232.198069 94.3107628 220.291449 94.3107628"></polygon>
                    <polygon id="Fill-18" fill="#FFA71A" points="235.048509 154.703093 246.955129 154.703093 246.955129 87.5927782 235.048509 87.5927782"></polygon>
                    <polygon id="Fill-19" fill="#FFA71A" points="279.320028 154.703093 291.226648 154.703093 291.226648 87.5927782 279.320028 87.5927782"></polygon>
                    <polygon id="Fill-20" fill="#FFA71A" points="205.531029 154.703093 217.444031 154.703093 217.444031 66.3249825 205.531029 66.3249825"></polygon>
                    <polygon id="Fill-21" fill="#FFA71A" points="249.802547 154.703093 261.715549 154.703093 261.715549 71.1337159 249.802547 71.1337159"></polygon>
                    <polygon id="Fill-22" fill="#FFA71A" points="264.559608 154.703093 276.47261 154.703093 276.47261 77.8517005 264.559608 77.8517005"></polygon>
                    <polygon id="Fill-23" fill="#01A38C" points="391.843617 239.597257 417.071664 162.315577 366.934337 162.315577 337.873679 239.597257"></polygon>
                    <polygon id="Fill-24" fill="#006B59" points="379.388775 233.529741 315.308943 233.529741 315.308943 239.597089 391.843583 239.597089 393.824381 233.529741"></polygon>
                    <polygon id="Fill-25" fill="#006B59" points="384.817579 216.285178 407.491449 216.285178 407.491449 209.578614 384.817579 209.578614"></polygon>
                    <path d="M385.457937,304.105965 L322.862444,304.105965 C322.862444,300.421822 333.077811,297.326511 346.815082,296.500871 L346.815082,239.599205 L361.505299,239.599205 L361.505299,296.500871 C375.242906,297.326511 385.457937,300.421822 385.457937,304.105965" id="Fill-26" fill="#01A38C"></path>
                    <polygon id="Fill-27" fill="#006B59" points="377.472773 266.305176 361.505467 253.833909 361.505467 255.251404 377.472773 267.722334"></polygon>
                    <path d="M373.328817,267.4385 C373.328817,269.630242 375.105388,271.406477 377.296795,271.406477 C379.488537,271.406477 381.265108,269.630242 381.265108,267.4385 C381.265108,265.247429 379.488537,263.470522 377.296795,263.470522 C375.105388,263.470522 373.328817,265.247429 373.328817,267.4385" id="Fill-28" fill="#006B59"></path>
                    <path d="M184.417646,204.157268 L377.29703,204.157268 C377.29703,204.157268 378.426659,218.721187 336.059017,221.252859 C293.691376,223.784196 263.594469,239.502936 263.594469,263.47069 L263.594469,304.106099 L184.417646,304.106099 L184.417646,204.157268 Z" id="Fill-29" fill="#FFFFFF"></path>
                    <polygon id="Fill-30" fill="#FFA71A" points="181.234766 204.157201 381.265108 204.157201 381.265108 200.956417 181.234766 200.956417"></polygon>
                    <polygon id="Fill-31" fill="#01A38C" points="208.706284 200.956417 222.905752 200.956417 222.905752 184.584017 208.706284 184.584017"></polygon>
                    <polygon id="Fill-32" fill="#006B59" points="232.237369 200.956417 245.909139 200.956417 245.909139 176.916445 232.237369 176.916445"></polygon>
                    <path d="M336.057472,197.081719 L336.057472,197.762922 C336.057472,197.994357 336.034295,198.219409 335.987941,198.438752 C335.728291,199.628171 334.804232,200.581117 333.620523,200.863944 C333.377668,200.927429 333.124064,200.956316 332.863742,200.956316 L294.556115,200.956316 L294.556115,197.081719 L336.057472,197.081719 Z" id="Fill-33" fill="#D9D8D6"></path>
                    <path d="M300.515437,200.956383 L270.823289,200.956383 C270.621078,200.956383 270.424577,200.921786 270.239832,200.864011 C269.679552,200.690687 269.223737,200.263423 269.004059,199.697769 L254.291001,160.806684 C254.025304,160.113388 254.186872,159.391877 254.614136,158.877951 C254.960448,158.456397 255.49184,158.17357 256.109895,158.17357 L283.180686,158.17357 C283.99457,158.17357 284.722127,158.67574 285.004955,159.437895 L300.515437,200.956383 Z" id="Fill-34" fill="#D9D8D6"></path>
                    <polygon id="Fill-35" fill="#01A38C" points="238.074928 176.916277 234.111317 159.518712 232.237335 160.047754 235.721282 176.916277"></polygon>
                    <polygon id="Fill-36" fill="#01A38C" points="240.056532 176.916277 243.772585 152.615983 248.231311 151.501134 244.515594 176.916277"></polygon>
                    <polygon id="Fill-37" fill="#FFA71A" points="232.906547 163.28777 234.858794 162.800045 235.124826 163.966959 233.222628 164.818127"></polygon>
                    <path d="M298.690631,200.863877 L270.239966,200.863877 C269.679686,200.690553 269.223535,200.263625 269.004193,199.697635 L254.290799,160.80655 C254.025103,160.11359 254.187006,159.391742 254.613934,158.878153 L283.157307,158.878153 L298.690631,200.863877 Z" id="Fill-38" fill="#1B2420"></path>
                    <path d="M335.987908,198.438752 C335.728258,199.628171 334.804199,200.581117 333.62049,200.863944 L292.748607,200.863944 L292.748607,198.438752 L335.987908,198.438752 Z" id="Fill-39" fill="#0B0F0D"></path>
                    <path d="M356.966528,296.339269 C356.966528,296.339269 336.623463,297.979129 336.057472,304.105931 L322.862679,304.105931 C322.862679,300.421789 333.07771,297.326477 346.814981,296.500837 L346.814981,239.599171 L352.416101,239.599171 L352.416101,277.393209 C352.416101,285.979801 353.681097,296.084994 356.966528,296.339269" id="Fill-40" fill="#006B59"></path>
                    <path d="M77.1631407,158.808554 C72.9701106,154.926231 66.7139874,152.308904 60.1081931,152.177568 L59.9513282,176.544369 L77.1631407,158.808554 Z" id="Fill-41" fill="#EAEAEA"></path>
                    <path d="M55.525184,152.013145 C38.2717201,152.013145 25.5293828,165.998309 25.5293828,183.249758 C25.5293828,200.501542 39.5138754,214.487043 56.7659958,214.487043 C68.8630707,214.487043 80.1133436,207.343474 84.2563247,198.127742 L56.1523079,183.249758 L56.1523079,152.028596 C55.9423709,152.024901 55.7351211,152.013145 55.525184,152.013145" id="Fill-42" fill="#006B59"></path>
                    <path d="M59.9853884,181.644462 L80.4752414,161.490508 C80.4752414,161.490508 93.2394122,175.262376 86.1855283,194.408633 L59.9853884,181.644462 Z" id="Fill-43" fill="#FFA71A"></path>
                    <path d="M142.382679,84.3278376 C142.382679,86.0426032 140.992392,87.4328901 139.277626,87.4328901 C137.562525,87.4328901 136.172574,86.0426032 136.172574,84.3278376 C136.172574,82.6130721 137.562525,81.2227852 139.277626,81.2227852 C140.992392,81.2227852 142.382679,82.6130721 142.382679,84.3278376" id="Fill-44" fill="#D6DAFF"></path>
                    <path d="M131.112689,84.3278376 C131.112689,86.0426032 129.722402,87.4328901 128.0073,87.4328901 C126.292535,87.4328901 124.902584,86.0426032 124.902584,84.3278376 C124.902584,82.6130721 126.292535,81.2227852 128.0073,81.2227852 C129.722402,81.2227852 131.112689,82.6130721 131.112689,84.3278376" id="Fill-45" fill="#D6DAFF"></path>
                    <path d="M119.782001,84.3278376 C119.782001,86.0426032 118.391714,87.4328901 116.676613,87.4328901 C114.961847,87.4328901 113.571896,86.0426032 113.571896,84.3278376 C113.571896,82.6130721 114.961847,81.2227852 116.676613,81.2227852 C118.391714,81.2227852 119.782001,82.6130721 119.782001,84.3278376" id="Fill-46" fill="#D6DAFF"></path>
                    <polygon id="Fill-47" fill="#D9D8D6" points="52.0375087 113.30788 128.007166 113.30788 128.007166 112.23401 52.0375087 112.23401"></polygon>
                    <polygon id="Fill-48" fill="#D9D8D6" points="52.200084 117.959076 95.1975367 117.959076 95.1975367 116.885542 52.200084 116.885542"></polygon>
                    <polygon id="Fill-49" fill="#D9D8D6" points="52.0375087 122.779566 110.864549 122.779566 110.864549 121.705696 52.0375087 121.705696"></polygon>
                    <polygon id="Fill-50" fill="#D9D8D6" points="52.0375087 128.705836 102.630651 128.705836 102.630651 127.632302 52.0375087 127.632302"></polygon>
                    <path d="M158.048246,73.8473786 C158.048246,73.8473786 161.677973,75.9363359 163.021906,83.0244815 C164.366175,90.112627 165.575748,98.4466228 160.534908,99.1187572 C155.494069,99.7908915 153.881416,99.7240476 153.881416,99.7240476 L153.343306,111.217176 L140.842144,108.125559 L142.382578,96.3287782 C142.382578,96.3287782 135.33071,90.3719412 135.06199,84.3277705 C134.793271,78.2832638 139.766595,71.4278964 146.487938,71.2932008 C153.208946,71.1588411 158.048246,73.8473786 158.048246,73.8473786" id="Fill-51" fill="#F7F7F7"></path>
                    <path d="M193.956344,124.221111 L200.923566,113.163309 C200.981005,113.07228 201.052551,112.990321 201.135519,112.921461 L211.29647,104.46016 C211.783524,104.054393 212.518136,104.182371 212.839591,104.728879 L212.97731,104.962665 C213.207737,105.353987 213.153321,105.850111 212.844294,106.182987 L207.626771,111.801909 C207.505847,111.932238 207.420865,112.091454 207.379885,112.264106 L206.76351,114.867661 C206.596904,115.570698 207.188759,116.221671 207.904224,116.122245 L209.200459,115.942539 C209.866883,115.849495 210.440935,116.41179 210.362334,117.079894 C210.31766,117.458452 210.067415,117.781251 209.711698,117.918634 L205.254987,119.638102 C205.072929,119.708305 204.914385,119.829229 204.798164,119.98643 L201.967205,123.817024 C201.897002,123.911412 201.811348,123.993707 201.713265,124.059544 L196.167233,127.7803 C195.610984,128.153484 194.851852,127.902903 194.626799,127.271748 L193.857926,125.113596 C193.752118,124.816661 193.788395,124.487815 193.956344,124.221111" id="Fill-52" fill="#01A38C"></path>
                    <path d="M167.240868,115.575636 L175.177831,133.60805 C176.099538,135.702046 178.836109,136.219331 180.458838,134.606343 L193.798069,121.3484 L199.868104,130.151311 L181.811169,149.22199 C178.581498,152.633047 172.999524,152.071087 170.51387,148.084971 L164.197621,137.953915 L156.85352,117.464397 L167.240868,115.575636 Z" id="Fill-53" fill="#006B59"></path>
                    <path d="M116.846141,301.634284 L116.846141,307.130603 C116.846141,308.107062 116.055099,308.898441 115.07864,308.898441 L100.021285,308.898441 C98.5097383,308.898441 97.6955185,307.123885 98.6817187,305.978133 L108.705288,294.329148 C109.421761,293.495782 110.716988,293.511905 111.412971,294.362738 L116.447093,300.515068 C116.705064,300.830813 116.846141,301.226167 116.846141,301.634284" id="Fill-54" fill="#006B59"></path>
                    <path d="M142.382679,306.613419 L142.382679,307.283202 C142.382679,308.175015 143.105534,308.898542 143.997682,308.898542 L169.445408,308.898542 C171.099376,308.898542 171.684512,306.707471 170.250558,305.883174 L153.9796,296.527373 C153.361209,296.171656 152.582595,296.263692 152.064302,296.754441 L142.887535,305.440459 C142.565072,305.745456 142.382679,306.169696 142.382679,306.613419" id="Fill-55" fill="#006B59"></path>
                    <path d="M165.127054,188.933878 L164.087446,204.675124 L157.909251,298.40646 L142.381302,305.918847 L142.382645,227.058105 L130.757509,261.149526 L119.179734,302.869889 L118.960392,303.661268 C118.688649,304.654522 117.430035,304.971947 116.719944,304.226922 L110.321735,297.540176 L104.350791,299.561282 L129.284927,187.750505 L129.313814,187.62891 L151.349139,167.320106 L165.127054,188.933878 Z" id="Fill-56" fill="#01A38C"></path>
                    <path d="M146.756591,104.899045 C146.756591,104.899045 122.96384,109.46929 121.081797,114.174231 C119.20009,118.879171 121.350852,137.160487 125.518018,148.18302 C129.685184,159.206225 127.861251,169.370536 126.171006,175.189654 C124.480761,181.008437 119.781867,197.079871 119.781867,197.079871 C119.781867,197.079871 132.216857,203.256386 144.407647,202.556708 L151.350013,174.576638 L155.753316,202.556708 C155.753316,202.556708 168.149341,202.444854 169.276619,197.079871 C170.403561,191.714553 169.779796,121.224084 167.978704,116.88561 C166.177276,112.546799 157.200034,107.112621 146.756591,104.899045" id="Fill-57" fill="#FFFFFF"></path>
                    <path d="M111.837178,193.432409 C111.837178,193.432409 115.919026,197.098749 116.146094,200.387202 C116.372826,203.67532 116.48636,207.304039 115.239166,206.623507 C113.991636,205.943311 113.878102,201.298833 112.630908,200.956216 C111.383379,200.613934 111.043784,206.283577 111.837178,207.757503 C112.630908,209.231765 114.954995,213.20075 113.849551,213.880946 C112.744442,214.561142 108.321993,209.458497 106.847731,205.489847 C105.373805,201.520862 104.353344,187.627062 104.353344,187.627062 L112.177444,188.441954 L111.837178,193.432409 Z" id="Fill-58" fill="#01A38C"></path>
                    <path d="M127.306581,116.885442 L129.730766,118.985819 C129.730766,118.985819 137.180003,139.786043 137.196126,148.723986 C137.212585,157.662265 131.341738,171.87752 127.880969,158.424084 C124.420535,144.970984 121.978211,138.556652 121.978211,138.556652 L127.306581,116.885442 Z" id="Fill-59" fill="#E3E3E3"></path>
                    <path d="M128.007267,115.080319 C130.080101,118.646225 132.644355,125.539213 128.007267,136.235253 C123.370514,146.931964 119.782102,157.628675 119.782102,157.628675 L114.813481,191.250844 L102.630752,189.439003 C102.630752,189.439003 105.542998,162.177086 107.444523,152.177366 C109.346385,142.177982 121.082032,114.174399 121.082032,114.174399 C121.082032,114.174399 126.202816,111.975267 128.007267,115.080319" id="Fill-60" fill="#006B59"></path>
                    <polygon id="Fill-61" fill="#E3E3E3" points="140.091745 102.640224 155.463166 104.221973 153.577428 140.488677 139.277526 112.234178"></polygon>
                    <path d="M139.277593,104.899045 L152.600028,138.556484 L137.213492,126.978374 C136.63944,126.546071 136.52557,125.729836 136.959888,125.156792 L140.911071,119.943972 C141.336991,119.382348 141.236893,118.58358 140.685346,118.14456 L134.298558,113.054007 C133.732232,112.60323 133.644227,111.776246 134.103401,111.215966 L139.277593,104.899045 Z" id="Fill-62" fill="#006B59"></path>
                    <path d="M155.347281,106.450598 L159.450962,112.288526 C159.872515,112.905573 159.880577,113.715762 159.471451,114.340535 L156.76847,118.470752 C156.28847,119.204355 156.390248,120.174432 157.013005,120.791815 L159.232291,122.994642 C159.782158,123.539807 159.932977,124.37015 159.610514,125.073523 L153.709436,137.953915 L155.347281,106.450598 Z" id="Fill-63" fill="#006B59"></path>
                    <path d="M158.249013,75.9962939 C158.249013,75.9962939 146.974556,75.905937 146.884199,77.259275 C146.794178,78.6119412 148.217047,79.9824101 147.370245,81.3266788 C146.550651,82.6279524 151.277425,92.8987432 155.089881,92.979359 C155.215171,92.9817103 155.33979,92.9733128 155.463065,92.9531589 C159.331617,92.3220042 156.535255,87.6849153 161.315773,87.4329909 C166.095955,87.1807306 166.36669,94.8338586 165.555157,96.3286102 C164.743289,97.8236977 164.030175,100.890458 160.14718,100.620059 C156.264857,100.349324 148.12669,99.8847754 147.370245,96.3286102 C146.6138,92.772781 144.720672,84.2943485 143.14161,83.8435717 C141.562883,83.392795 139.414136,87.9022421 142.382813,89.706021 C145.351155,91.5101358 142.15944,98.0380014 142.15944,98.0380014 C142.15944,98.0380014 131.551071,88.8944885 132.45296,83.392795 C133.355185,77.8907656 134.166718,74.4632498 137.233478,72.2983793 C140.299902,70.1335087 160.503905,66.1648593 161.856907,67.8786172 C163.209909,69.592711 164.292176,77.9804507 158.249013,75.9962939" id="Fill-64" fill="#1B2420"></path>
                    <path d="M208.706049,186.134158 C208.706049,186.134158 209.276406,186.189582 211.91523,186.134158 C214.553719,186.078399 219.222718,190.138077 219.425265,194.400638 C219.628484,198.663199 222.165531,200.956383 222.165531,200.956383 L208.706049,200.956383 L208.706049,186.134158 Z" id="Fill-65" fill="#006B59"></path>
                    <path d="M232.237369,178.233976 L238.074962,178.233976 C240.941526,178.233976 242.378838,200.956216 244.143989,200.956216 L232.237369,200.956216 L232.237369,178.233976 Z" id="Fill-66" fill="#006B59"></path>
                    <path d="M156.975922,147.108176 C156.975922,148.010066 156.244669,148.740983 155.34278,148.740983 C154.440554,148.740983 153.709302,148.010066 153.709302,147.108176 C153.709302,146.205951 154.440554,145.475034 155.34278,145.475034 C156.244669,145.475034 156.975922,146.205951 156.975922,147.108176" id="Fill-67" fill="#006B59"></path>
                    <path d="M156.968397,158.424118 C156.968397,159.326343 156.237145,160.05726 155.335255,160.05726 C154.43303,160.05726 153.702113,159.326343 153.702113,158.424118 C153.702113,157.522228 154.43303,156.791311 155.335255,156.791311 C156.237145,156.791311 156.968397,157.522228 156.968397,158.424118" id="Fill-68" fill="#006B59"></path>
                    <path d="M155.304655,172.451505 C155.304655,173.35373 154.573402,174.084647 153.671513,174.084647 C152.769288,174.084647 152.038035,173.35373 152.038035,172.451505 C152.038035,171.549615 152.769288,170.818362 153.671513,170.818362 C154.573402,170.818362 155.304655,171.549615 155.304655,172.451505" id="Fill-69" fill="#006B59"></path>
                    <polygon id="Fill-70" fill="#FFA71A" points="43.958662 119.591983 43.958662 116.865825 40.2547012 116.865825 40.2547012 112.113187 36.7935955 112.113187 36.7935955 123.225069 30.0225388 112.113187 26.5500126 112.113187 26.5500126 116.865825 22.6042043 116.865825 22.6042043 119.591983 26.5500126 119.591983 26.5500126 121.86367 22.6042043 121.86367 22.6042043 124.589828 26.5500126 124.589828 26.5500126 128.966259 30.0225388 128.966259 30.0225388 117.877554 36.7821749 128.966259 40.2547012 128.966259 40.2547012 124.589828 43.958662 124.589828 43.958662 121.86367 40.2547012 121.86367 40.2547012 119.591983"></polygon>
                    <polygon id="Fill-71" fill="#01A38C" points="306.397873 96.0980826 339.789279 96.0980826 339.789279 94.2828831 306.397873 94.2828831"></polygon>
                    <polygon id="Fill-72" fill="#01A38C" points="306.397873 100.818139 334.121652 100.818139 334.121652 99.0029391 306.397873 99.0029391"></polygon>
                    <polygon id="Fill-73" fill="#01A38C" points="306.397873 150.336403 327.3076 150.336403 327.3076 148.521204 306.397873 148.521204"></polygon>
                    <polygon id="Fill-74" fill="#01A38C" points="306.397873 154.703093 322.322519 154.703093 322.322519 152.887894 306.397873 152.887894"></polygon>
                    <polygon id="Fill-75" fill="#E6E7E8" points="168.535255 24.5784521 158.390091 37.4615311 158.390091 42.0331197 367.487698 42.0331197 368.676445 37.8646102 359.453324 24.5784521"></polygon>
                    <path d="M174.984924,37.8645094 L155.61899,37.8645094 L155.61899,47.2945444 C160.967177,49.7204087 169.637408,49.7204087 174.984924,47.2945444 L174.984924,37.8645094 Z" id="Fill-76" fill="#F49711"></path>
                    <path d="M194.349649,37.8645094 L174.985058,37.8645094 L174.985058,47.2945444 C180.33291,49.7204087 189.002133,49.7204087 194.349649,47.2945444 L194.349649,37.8645094 Z" id="Fill-77" fill="#E4E5E5"></path>
                    <path d="M213.723241,37.8645094 L194.357643,37.8645094 L194.357643,47.2945444 C199.705831,49.7204087 208.375726,49.7204087 213.723241,47.2945444 L213.723241,37.8645094 Z" id="Fill-78" fill="#F49711"></path>
                    <path d="M233.088941,37.8645094 L213.723342,37.8645094 L213.723342,47.2945444 C219.071194,49.7204087 227.741761,49.7204087 233.088941,47.2945444 L233.088941,37.8645094 Z" id="Fill-79" fill="#E4E5E5"></path>
                    <path d="M252.461526,37.8645094 L233.095591,37.8645094 L233.095591,47.2945444 C238.443779,49.7204087 247.113674,49.7204087 252.461526,47.2945444 L252.461526,37.8645094 Z" id="Fill-80" fill="#F49711"></path>
                    <path d="M271.827896,37.8645094 L252.461626,37.8645094 L252.461626,47.2945444 C257.809814,49.7204087 266.479709,49.7204087 271.827896,47.2945444 L271.827896,37.8645094 Z" id="Fill-81" fill="#E4E5E5"></path>
                    <path d="M291.199507,37.8645094 L271.834245,37.8645094 L271.834245,47.2945444 C277.181761,49.7204087 285.852663,49.7204087 291.199507,47.2945444 L291.199507,37.8645094 Z" id="Fill-82" fill="#F49711"></path>
                    <path d="M310.566516,37.8645094 L291.199575,37.8645094 L291.199575,47.2945444 C296.548098,49.7204087 305.219001,49.7204087 310.566516,47.2945444 L310.566516,37.8645094 Z" id="Fill-83" fill="#E4E5E5"></path>
                    <path d="M329.939101,37.8645094 L310.573167,37.8645094 L310.573167,47.2945444 C315.920347,49.7204087 324.590914,49.7204087 329.939101,47.2945444 L329.939101,37.8645094 Z" id="Fill-84" fill="#F49711"></path>
                    <path d="M349.305136,37.8645094 L329.939202,37.8645094 L329.939202,47.2945444 C335.286382,49.7204087 343.956949,49.7204087 349.305136,47.2945444 L349.305136,37.8645094 Z" id="Fill-85" fill="#E4E5E5"></path>
                    <path d="M368.676747,37.8645094 L349.311821,37.8645094 L349.311821,47.2945444 C354.659672,49.7204087 363.330239,49.7204087 368.676747,47.2945444 L368.676747,37.8645094 Z" id="Fill-86" fill="#F49711"></path>
                    <path d="M184.208381,24.5784521 L166.687205,24.5784521 C162.996344,29.0076193 159.308507,33.4361148 155.61899,37.8646102 L174.985596,37.8646102 C178.059745,33.4361148 181.134231,29.0076193 184.208381,24.5784521" id="Fill-87" fill="#FFA71A"></path>
                    <path d="M201.728918,24.5784521 L184.208414,24.5784521 C181.133929,29.0076193 178.059779,33.4361148 174.985629,37.8646102 L194.349548,37.8646102 C196.809674,33.4361148 199.2698,29.0076193 201.728918,24.5784521" id="Fill-88" fill="#F1F2F3"></path>
                    <path d="M219.257685,24.5784521 L201.736174,24.5784521 C199.277055,29.0076193 196.816929,33.4361148 194.357475,37.8646102 L213.723073,37.8646102 C215.567496,33.4361148 217.412927,29.0076193 219.257685,24.5784521" id="Fill-89" fill="#FFA71A"></path>
                    <path d="M236.77923,24.5784521 L219.257719,24.5784521 C217.41296,29.0076193 215.56753,33.4361148 213.723107,37.8646102 L233.089041,37.8646102 C234.318768,33.4361148 235.548495,29.0076193 236.77923,24.5784521" id="Fill-90" fill="#F1F2F3"></path>
                    <path d="M254.307325,24.5784521 L236.78447,24.5784521 C235.555079,29.0076193 234.32636,33.4361148 233.095625,37.8646102 L252.461559,37.8646102 C253.076255,33.4361148 253.69095,29.0076193 254.307325,24.5784521" id="Fill-91" fill="#FFA71A"></path>
                    <path d="M271.827896,24.5784521 L254.307393,24.5784521 C253.691017,29.0076193 253.076322,33.4361148 252.461626,37.8646102 L271.827896,37.8646102 L271.827896,24.5784521 Z" id="Fill-92" fill="#F1F2F3"></path>
                    <path d="M289.355992,24.5784521 L271.833808,24.5784521 C271.834144,29.0076193 271.834144,33.4361148 271.834144,37.8646102 L291.199407,37.8646102 C290.585383,33.4361148 289.970015,29.0076193 289.355992,24.5784521" id="Fill-93" fill="#FFA71A"></path>
                    <path d="M306.876865,24.5784521 L289.356025,24.5784521 C289.970049,29.0076193 290.585416,33.4361148 291.19944,37.8646102 L310.566382,37.8646102 C309.335311,33.4361148 308.106928,29.0076193 306.876865,24.5784521" id="Fill-94" fill="#F1F2F3"></path>
                    <path d="M324.40496,24.5784521 L306.88412,24.5784521 C308.114183,29.0076193 309.343239,33.4361148 310.572966,37.8646102 L329.939236,37.8646102 C328.095485,33.4361148 326.250055,29.0076193 324.40496,24.5784521" id="Fill-95" fill="#FFA71A"></path>
                    <path d="M341.925531,24.5784521 L324.405027,24.5784521 C326.250122,29.0076193 328.095552,33.4361148 329.938967,37.8646102 L349.305237,37.8646102 C346.845111,33.4361148 344.384985,29.0076193 341.925531,24.5784521" id="Fill-96" fill="#F1F2F3"></path>
                    <path d="M359.453626,24.5784521 L341.933122,24.5784521 C344.391905,29.0076193 346.853038,33.4361148 349.311821,37.8646102 L368.676747,37.8646102 C365.604277,33.4361148 362.52744,29.0076193 359.453626,24.5784521" id="Fill-97" fill="#FFA71A"></path>
                    <path d="M172.277072,0.228041987 L354.120487,0.228041987 C359.688689,0.228041987 364.244826,10.2109671 364.244826,22.4118348 L364.244826,22.4125066 L364.244826,22.5250329 L162.152397,22.5250329 L162.152397,22.4125066 L162.152397,22.4118348 C162.152397,10.2109671 166.708535,0.228041987 172.277072,0.228041987" id="Fill-98" fill="#006B59"></path>
                </g>
            </g>
        </g>
    </g>
</svg>