<svg xmlns="http://www.w3.org/2000/svg" xmlns:xlink="http://www.w3.org/1999/xlink" viewBox="0 0 880.28 98.49"><defs><style>.cls-1{fill:#006a5a;}.cls-2{fill:#231f20;}.cls-3,.cls-4,.cls-5,.cls-6{fill-rule:evenodd;}.cls-3{fill:url(#linear-gradient);}.cls-4{fill:url(#linear-gradient-2);}.cls-5{fill:url(#linear-gradient-3);}.cls-6{fill:url(#linear-gradient-4);}</style><linearGradient id="linear-gradient" x1="43.53" y1="53.12" x2="65.53" y2="53.12" gradientUnits="userSpaceOnUse"><stop offset="0" stop-color="#00a188"/><stop offset="0.73" stop-color="#008370"/><stop offset="1" stop-color="#006a5a"/></linearGradient><linearGradient id="linear-gradient-2" x1="41.38" y1="66.41" x2="109.01" y2="66.41" gradientUnits="userSpaceOnUse"><stop offset="0" stop-color="#00a288"/><stop offset="1" stop-color="#006a5a"/></linearGradient><linearGradient id="linear-gradient-3" x1="20.73" y1="31.79" x2="88.36" y2="31.79" xlink:href="#linear-gradient-2"/><linearGradient id="linear-gradient-4" x1="0" y1="66.7" x2="67.63" y2="66.7" xlink:href="#linear-gradient-2"/></defs><title>Asset 6</title><g id="Layer_2" data-name="Layer 2"><g id="Layer_1-2" data-name="Layer 1"><path class="cls-1" d="M150.81,23.07,165.22,54h-3.34L157,43.81H143.71L138.89,54h-3.44l14.6-30.9Zm-.39,6.56-5.3,11.19h10.57Z"/><path class="cls-1" d="M176.56,23.07H192v3H179.65v9.69H192v3H179.65V54h-3.09Z"/><path class="cls-1" d="M204.14,23.07h6.15a37.37,37.37,0,0,1,7,.42,8,8,0,0,1,4.48,2.7,7.75,7.75,0,0,1,1.72,5.1,8.23,8.23,0,0,1-1.19,4.44,7.36,7.36,0,0,1-3.39,2.89,15.38,15.38,0,0,1-6.1,1L223.91,54h-3.82L209,39.62h-1.74V54h-3.09Zm3.09,3V36.6l5.32,0a13.32,13.32,0,0,0,4.58-.59,4.72,4.72,0,0,0,2.31-1.88,5.17,5.17,0,0,0,.83-2.89,5,5,0,0,0-.84-2.82,4.61,4.61,0,0,0-2.21-1.82,13.21,13.21,0,0,0-4.54-.55Z"/><path class="cls-1" d="M236.2,23.07h3.09V54H236.2Z"/><path class="cls-1" d="M281.7,28.8l-2.43,1.88a13.34,13.34,0,0,0-4.85-4,14.19,14.19,0,0,0-6.21-1.35,13.8,13.8,0,0,0-6.85,1.77,12.86,12.86,0,0,0-4.88,4.77,13.19,13.19,0,0,0-1.73,6.74,12.65,12.65,0,0,0,3.87,9.43,13.46,13.46,0,0,0,9.78,3.78,13.77,13.77,0,0,0,10.87-5.08l2.43,1.85a15.55,15.55,0,0,1-5.76,4.54,18,18,0,0,1-7.73,1.61q-8.1,0-12.79-5.4a16.29,16.29,0,0,1-3.93-11,15.33,15.33,0,0,1,4.76-11.42,16.4,16.4,0,0,1,11.92-4.63A17.54,17.54,0,0,1,276,24,15.22,15.22,0,0,1,281.7,28.8Z"/><path class="cls-1" d="M307.08,23.07,321.49,54h-3.33L313.3,43.81H300L295.17,54h-3.45l14.6-30.9Zm-.39,6.56-5.3,11.19H312Z"/><path class="cls-1" d="M332.85,54V23.07h.67l20.57,23.69V23.07h3.05V54h-.69l-20.4-23.4V54Z"/><path class="cls-1" d="M423.82,28.8l-2.44,1.87a13.38,13.38,0,0,0-4.84-4,14.19,14.19,0,0,0-6.21-1.35,13.77,13.77,0,0,0-6.85,1.77,12.79,12.79,0,0,0-4.88,4.77,13.17,13.17,0,0,0-1.74,6.74,12.66,12.66,0,0,0,3.88,9.43,13.46,13.46,0,0,0,9.78,3.78,13.74,13.74,0,0,0,10.86-5.08l2.44,1.85a15.5,15.5,0,0,1-5.77,4.54,17.93,17.93,0,0,1-7.72,1.61q-8.1,0-12.79-5.4a16.29,16.29,0,0,1-3.93-11,15.29,15.29,0,0,1,4.76-11.42,16.38,16.38,0,0,1,11.92-4.63A17.54,17.54,0,0,1,418.11,24,15.13,15.13,0,0,1,423.82,28.8Z"/><path class="cls-1" d="M449.2,23.07,463.61,54h-3.33l-4.86-10.16H442.1L437.29,54h-3.45l14.6-30.9Zm-.39,6.56-5.3,11.19h10.57Z"/><path class="cls-1" d="M474.93,23.07h6.16a35.29,35.29,0,0,1,7.14.46,7.93,7.93,0,0,1,4.33,2.68,7.71,7.71,0,0,1,1.68,5.09,7.82,7.82,0,0,1-1.64,5.1,8,8,0,0,1-4.52,2.7,39.73,39.73,0,0,1-7.86.5H478V54h-3.09Zm3.09,3V36.58l5.23.06a13.52,13.52,0,0,0,4.64-.58,4.72,4.72,0,0,0,2.31-1.86,5.17,5.17,0,0,0,.84-2.89,5.11,5.11,0,0,0-.84-2.84A4.62,4.62,0,0,0,488,26.64a13.16,13.16,0,0,0-4.51-.55Z"/><path class="cls-1" d="M506.53,23.07h3.09V54h-3.09Z"/><path class="cls-1" d="M520.18,26.09v-3h16.93v3h-6.89V54h-3.15V26.09Z"/><path class="cls-1" d="M560.75,23.07,575.16,54h-3.33L567,43.81H553.65L548.84,54h-3.45L560,23.07Zm-.39,6.56-5.3,11.19h10.57Z"/><path class="cls-1" d="M586.5,23.07h3.09V51h11.89v3h-15Z"/><path class="cls-1" d="M649.38,23.07,663.79,54h-3.34l-4.86-10.16H642.28L637.46,54H634l14.6-30.9Zm-.4,6.56-5.29,11.19h10.57Z"/><path class="cls-1" d="M675.13,23.07h3.09V51h11.89v3h-15Z"/><path class="cls-1" d="M701.55,23.07h3.09V51h11.89v3h-15Z"/><path class="cls-1" d="M727.53,23.07h3.09V54h-3.09Z"/><path class="cls-1" d="M756.88,23.07,771.29,54H768l-4.87-10.16H749.78L745,54h-3.45l14.6-30.9Zm-.39,6.56-5.3,11.19h10.57Z"/><path class="cls-1" d="M782.65,54V23.07h.67l20.57,23.69V23.07h3.05V54h-.69l-20.41-23.4V54Z"/><path class="cls-1" d="M849.79,28.8l-2.43,1.87a13.41,13.41,0,0,0-4.85-4,14.19,14.19,0,0,0-6.21-1.35,13.73,13.73,0,0,0-6.84,1.77,12.81,12.81,0,0,0-4.89,4.77,13.26,13.26,0,0,0-1.73,6.74,12.65,12.65,0,0,0,3.87,9.43,13.46,13.46,0,0,0,9.78,3.78,13.77,13.77,0,0,0,10.87-5.08l2.43,1.85A15.55,15.55,0,0,1,844,53.14a18,18,0,0,1-7.73,1.61q-8.1,0-12.79-5.4a16.29,16.29,0,0,1-3.93-11,15.33,15.33,0,0,1,4.76-11.42,16.4,16.4,0,0,1,11.92-4.63A17.54,17.54,0,0,1,844.08,24,15.13,15.13,0,0,1,849.79,28.8Z"/><path class="cls-1" d="M862.57,23.07h17.71v3H865.66v9.69h14.49v3H865.66V51h14.49v3H862.57Z"/><path class="cls-2" d="M138.61,73.31h9v1.76H140.4v5.64h7.21v1.75H140.4v8.83h-1.79Z"/><path class="cls-2" d="M221.69,72.86a9.37,9.37,0,0,1,6.84,2.72,9.47,9.47,0,0,1-6.69,16.17A9.25,9.25,0,0,1,215.08,89a9,9,0,0,1-2.75-6.63,9.6,9.6,0,0,1,1.25-4.8A9.12,9.12,0,0,1,217,74.11,9.28,9.28,0,0,1,221.69,72.86Zm.08,1.74a7.75,7.75,0,0,0-6.58,3.85,7.75,7.75,0,0,0-1,3.92A7.56,7.56,0,0,0,221.77,90a7.64,7.64,0,0,0,3.87-1,7.21,7.21,0,0,0,2.78-2.78,7.74,7.74,0,0,0,1-3.91,7.6,7.6,0,0,0-1-3.88,7.38,7.38,0,0,0-2.81-2.76A7.52,7.52,0,0,0,221.77,74.6Z"/><path class="cls-2" d="M297.33,73.31h1.8V84.17a22.33,22.33,0,0,0,.07,2.4,4.09,4.09,0,0,0,.62,1.78,3.66,3.66,0,0,0,1.51,1.2,4.69,4.69,0,0,0,2,.48,4,4,0,0,0,1.71-.38,3.84,3.84,0,0,0,1.37-1.05,4.25,4.25,0,0,0,.8-1.62,12.83,12.83,0,0,0,.19-2.81V73.31h1.8V84.17a13,13,0,0,1-.48,3.89,5.25,5.25,0,0,1-1.88,2.58,5.36,5.36,0,0,1-3.42,1.11,6.53,6.53,0,0,1-3.72-1A5,5,0,0,1,297.66,88a14.51,14.51,0,0,1-.33-3.78Z"/><path class="cls-2" d="M376.05,91.29v-18h.39l12,13.78V73.31h1.78v18h-.41L377.91,77.68V91.29Z"/><path class="cls-2" d="M456.94,91.29v-18h3.73a18.83,18.83,0,0,1,5.86.65,7.86,7.86,0,0,1,4.09,3.18,9.64,9.64,0,0,1,1.47,5.39,9.42,9.42,0,0,1-1.17,4.75,7.48,7.48,0,0,1-3,3,11.3,11.3,0,0,1-5.23,1Zm1.73-1.7h2.07a19.49,19.49,0,0,0,5.18-.46,6,6,0,0,0,3.19-2.38,7.32,7.32,0,0,0,1.16-4.19A7.69,7.69,0,0,0,469,78.11a6.36,6.36,0,0,0-3.51-2.53,21.31,21.31,0,0,0-5.56-.51h-1.27Z"/><path class="cls-2" d="M545.3,73.31l8.39,18h-1.94l-2.83-5.92h-7.75l-2.8,5.92h-2l8.49-18Zm-.22,3.82L542,83.64h6.15Z"/><path class="cls-2" d="M617.07,75.07V73.31h9.86v1.76h-4V91.29h-1.84V75.07Z"/><path class="cls-2" d="M712.44,73.31h1.79v18h-1.79Z"/><path class="cls-2" d="M789.3,72.86a9.37,9.37,0,0,1,6.84,2.72,9.47,9.47,0,0,1-6.69,16.17A9.25,9.25,0,0,1,782.69,89a9,9,0,0,1-2.75-6.63,9.6,9.6,0,0,1,1.25-4.8,9.12,9.12,0,0,1,3.42-3.47A9.28,9.28,0,0,1,789.3,72.86Zm.08,1.74a7.71,7.71,0,0,0-6.58,3.85,7.75,7.75,0,0,0-1,3.92A7.56,7.56,0,0,0,789.38,90a7.64,7.64,0,0,0,3.87-1A7.21,7.21,0,0,0,796,86.2a7.74,7.74,0,0,0,1-3.91,7.6,7.6,0,0,0-1-3.88,7.38,7.38,0,0,0-2.81-2.76A7.55,7.55,0,0,0,789.38,74.6Z"/><path class="cls-2" d="M864.89,91.29v-18h.39l12,13.78V73.31H879v18h-.4L866.75,77.68V91.29Z"/><polygon class="cls-3" points="49.12 62.8 43.53 61.34 45.98 53.57 49.3 48.35 54.02 43.13 59.48 47.84 63.03 54.39 65.53 60.56 63.77 61.73 55.75 63.1 49.12 62.8"/><path class="cls-4" d="M75.16,35.78c16.15.37,29.25,14.41,29.25,31.37s-13.1,30.4-29.25,30S45.91,82.77,45.91,65.82s13.1-30.4,29.25-30m0-1.15C93.87,34.21,109,48.1,109,65.66S93.87,97.77,75.2,98.19s-33.82-13.47-33.82-31S56.52,35.05,75.2,34.63Z"/><path class="cls-5" d="M54.51,1.16c16.15.37,29.24,14.41,29.24,31.37s-13.09,30.4-29.24,30S25.26,48.15,25.26,31.2,38.35.8,54.51,1.16m0-1.15C73.22-.41,88.36,13.48,88.36,31S73.22,63.15,54.54,63.57s-33.81-13.47-33.81-31S35.87.43,54.54,0Z"/><path class="cls-6" d="M33.78,36.07C49.93,36.44,63,50.48,63,67.43s-13.1,30.41-29.25,30S4.53,83.06,4.53,66.1s13.1-30.4,29.25-30m0-1.15c18.67-.42,33.81,13.47,33.81,31S52.49,98.06,33.82,98.48,0,85,0,67.45,15.14,35.33,33.82,34.92Z"/></g></g></svg>